<mxfile host="app.diagrams.net" agent="Mozilla/5.0 (X11; Linux x86_64; rv:131.0) Gecko/20100101 Firefox/131.0" version="24.8.4">
  <diagram name="Page-1" id="x-qG1IfEhME5JwyJ-67E">
    <mxGraphModel dx="3008" dy="1957" grid="1" gridSize="10" guides="1" tooltips="1" connect="1" arrows="1" fold="1" page="1" pageScale="1" pageWidth="850" pageHeight="1100" math="0" shadow="0">
      <root>
        <mxCell id="0" />
        <mxCell id="1" parent="0" />
        <mxCell id="NoPwjyz6uO1jpUqEw4Ve-11" value="&lt;div&gt;Tensors&lt;/div&gt;" style="swimlane;whiteSpace=wrap;html=1;rounded=0;" parent="1" vertex="1">
          <mxGeometry x="35" y="20" width="770" height="280" as="geometry" />
        </mxCell>
        <mxCell id="NoPwjyz6uO1jpUqEw4Ve-59" value="&lt;div&gt;HSMatrix&lt;/div&gt;" style="swimlane;fontStyle=1;align=center;verticalAlign=top;childLayout=stackLayout;horizontal=1;startSize=26;horizontalStack=0;resizeParent=1;resizeParentMax=0;resizeLast=0;collapsible=1;marginBottom=0;whiteSpace=wrap;html=1;" parent="NoPwjyz6uO1jpUqEw4Ve-11" vertex="1">
          <mxGeometry x="10" y="40" width="360" height="190" as="geometry" />
        </mxCell>
        <mxCell id="NoPwjyz6uO1jpUqEw4Ve-60" value="- n_qubits: int" style="text;strokeColor=none;fillColor=none;align=left;verticalAlign=top;spacingLeft=4;spacingRight=4;overflow=hidden;rotatable=0;points=[[0,0.5],[1,0.5]];portConstraint=eastwest;whiteSpace=wrap;html=1;" parent="NoPwjyz6uO1jpUqEw4Ve-59" vertex="1">
          <mxGeometry y="26" width="360" height="26" as="geometry" />
        </mxCell>
        <mxCell id="NoPwjyz6uO1jpUqEw4Ve-63" value="- data:  vector&amp;lt;Complex&amp;gt; " style="text;strokeColor=none;fillColor=none;align=left;verticalAlign=top;spacingLeft=4;spacingRight=4;overflow=hidden;rotatable=0;points=[[0,0.5],[1,0.5]];portConstraint=eastwest;whiteSpace=wrap;html=1;" parent="NoPwjyz6uO1jpUqEw4Ve-59" vertex="1">
          <mxGeometry y="52" width="360" height="26" as="geometry" />
        </mxCell>
        <mxCell id="NoPwjyz6uO1jpUqEw4Ve-61" value="" style="line;strokeWidth=1;fillColor=none;align=left;verticalAlign=middle;spacingTop=-1;spacingLeft=3;spacingRight=3;rotatable=0;labelPosition=right;points=[];portConstraint=eastwest;strokeColor=inherit;" parent="NoPwjyz6uO1jpUqEw4Ve-59" vertex="1">
          <mxGeometry y="78" width="360" height="8" as="geometry" />
        </mxCell>
        <mxCell id="NoPwjyz6uO1jpUqEw4Ve-122" value="+ evolve(State): State" style="text;strokeColor=none;fillColor=none;align=left;verticalAlign=top;spacingLeft=4;spacingRight=4;overflow=hidden;rotatable=0;points=[[0,0.5],[1,0.5]];portConstraint=eastwest;whiteSpace=wrap;html=1;" parent="NoPwjyz6uO1jpUqEw4Ve-59" vertex="1">
          <mxGeometry y="86" width="360" height="26" as="geometry" />
        </mxCell>
        <mxCell id="NoPwjyz6uO1jpUqEw4Ve-64" value="+ to_unitary(): HSMatrix" style="text;strokeColor=none;fillColor=none;align=left;verticalAlign=top;spacingLeft=4;spacingRight=4;overflow=hidden;rotatable=0;points=[[0,0.5],[1,0.5]];portConstraint=eastwest;whiteSpace=wrap;html=1;" parent="NoPwjyz6uO1jpUqEw4Ve-59" vertex="1">
          <mxGeometry y="112" width="360" height="26" as="geometry" />
        </mxCell>
        <mxCell id="NoPwjyz6uO1jpUqEw4Ve-62" value="+ move_axis(IntArr): HSMatrix" style="text;strokeColor=none;fillColor=none;align=left;verticalAlign=top;spacingLeft=4;spacingRight=4;overflow=hidden;rotatable=0;points=[[0,0.5],[1,0.5]];portConstraint=eastwest;whiteSpace=wrap;html=1;" parent="NoPwjyz6uO1jpUqEw4Ve-59" vertex="1">
          <mxGeometry y="138" width="360" height="26" as="geometry" />
        </mxCell>
        <mxCell id="NoPwjyz6uO1jpUqEw4Ve-83" value="+ tensordot(HSMatrix, HSMatrix, IntArr, IntArr): HSMatrix" style="text;strokeColor=none;fillColor=none;align=left;verticalAlign=top;spacingLeft=4;spacingRight=4;overflow=hidden;rotatable=0;points=[[0,0.5],[1,0.5]];portConstraint=eastwest;whiteSpace=wrap;html=1;" parent="NoPwjyz6uO1jpUqEw4Ve-59" vertex="1">
          <mxGeometry y="164" width="360" height="26" as="geometry" />
        </mxCell>
        <mxCell id="NoPwjyz6uO1jpUqEw4Ve-66" value="&lt;div&gt;State&lt;/div&gt;&lt;div&gt;&lt;br&gt;&lt;/div&gt;" style="swimlane;fontStyle=1;align=center;verticalAlign=top;childLayout=stackLayout;horizontal=1;startSize=26;horizontalStack=0;resizeParent=1;resizeParentMax=0;resizeLast=0;collapsible=1;marginBottom=0;whiteSpace=wrap;html=1;" parent="NoPwjyz6uO1jpUqEw4Ve-11" vertex="1">
          <mxGeometry x="490" y="71" width="270" height="138" as="geometry" />
        </mxCell>
        <mxCell id="NoPwjyz6uO1jpUqEw4Ve-67" value="- n_qubits: int" style="text;strokeColor=none;fillColor=none;align=left;verticalAlign=top;spacingLeft=4;spacingRight=4;overflow=hidden;rotatable=0;points=[[0,0.5],[1,0.5]];portConstraint=eastwest;whiteSpace=wrap;html=1;" parent="NoPwjyz6uO1jpUqEw4Ve-66" vertex="1">
          <mxGeometry y="26" width="270" height="26" as="geometry" />
        </mxCell>
        <mxCell id="NoPwjyz6uO1jpUqEw4Ve-68" value="- data:  vector&amp;lt;Complex&amp;gt; " style="text;strokeColor=none;fillColor=none;align=left;verticalAlign=top;spacingLeft=4;spacingRight=4;overflow=hidden;rotatable=0;points=[[0,0.5],[1,0.5]];portConstraint=eastwest;whiteSpace=wrap;html=1;" parent="NoPwjyz6uO1jpUqEw4Ve-66" vertex="1">
          <mxGeometry y="52" width="270" height="26" as="geometry" />
        </mxCell>
        <mxCell id="NoPwjyz6uO1jpUqEw4Ve-69" value="" style="line;strokeWidth=1;fillColor=none;align=left;verticalAlign=middle;spacingTop=-1;spacingLeft=3;spacingRight=3;rotatable=0;labelPosition=right;points=[];portConstraint=eastwest;strokeColor=inherit;" parent="NoPwjyz6uO1jpUqEw4Ve-66" vertex="1">
          <mxGeometry y="78" width="270" height="8" as="geometry" />
        </mxCell>
        <mxCell id="NoPwjyz6uO1jpUqEw4Ve-70" value="+ move_axis(IntArr): HSMatrix" style="text;strokeColor=none;fillColor=none;align=left;verticalAlign=top;spacingLeft=4;spacingRight=4;overflow=hidden;rotatable=0;points=[[0,0.5],[1,0.5]];portConstraint=eastwest;whiteSpace=wrap;html=1;" parent="NoPwjyz6uO1jpUqEw4Ve-66" vertex="1">
          <mxGeometry y="86" width="270" height="26" as="geometry" />
        </mxCell>
        <mxCell id="NoPwjyz6uO1jpUqEw4Ve-84" value="&lt;div&gt;+ statedot(State, State, IntArr, IntArr): State&lt;/div&gt;" style="text;strokeColor=none;fillColor=none;align=left;verticalAlign=top;spacingLeft=4;spacingRight=4;overflow=hidden;rotatable=0;points=[[0,0.5],[1,0.5]];portConstraint=eastwest;whiteSpace=wrap;html=1;" parent="NoPwjyz6uO1jpUqEw4Ve-66" vertex="1">
          <mxGeometry y="112" width="270" height="26" as="geometry" />
        </mxCell>
        <mxCell id="NoPwjyz6uO1jpUqEw4Ve-126" style="edgeStyle=orthogonalEdgeStyle;rounded=0;orthogonalLoop=1;jettySize=auto;html=1;entryX=-0.009;entryY=0.119;entryDx=0;entryDy=0;entryPerimeter=0;" parent="NoPwjyz6uO1jpUqEw4Ve-11" source="NoPwjyz6uO1jpUqEw4Ve-122" target="NoPwjyz6uO1jpUqEw4Ve-66" edge="1">
          <mxGeometry relative="1" as="geometry" />
        </mxCell>
        <mxCell id="NoPwjyz6uO1jpUqEw4Ve-28" value="&lt;div&gt;QuantumCircuit&lt;/div&gt;" style="swimlane;whiteSpace=wrap;html=1;" parent="1" vertex="1">
          <mxGeometry x="50" y="-240" width="780" height="200" as="geometry" />
        </mxCell>
        <mxCell id="NoPwjyz6uO1jpUqEw4Ve-98" value="QuantumCircuit" style="swimlane;fontStyle=1;align=center;verticalAlign=top;childLayout=stackLayout;horizontal=1;startSize=26;horizontalStack=0;resizeParent=1;resizeParentMax=0;resizeLast=0;collapsible=1;marginBottom=0;whiteSpace=wrap;html=1;" parent="NoPwjyz6uO1jpUqEw4Ve-28" vertex="1">
          <mxGeometry x="10" y="56" width="180" height="114" as="geometry" />
        </mxCell>
        <mxCell id="NoPwjyz6uO1jpUqEw4Ve-96" value="&lt;div&gt;-qc_data: vector&amp;lt;Instruction&amp;gt;&lt;/div&gt;" style="text;strokeColor=none;fillColor=none;align=left;verticalAlign=top;spacingLeft=4;spacingRight=4;overflow=hidden;rotatable=0;points=[[0,0.5],[1,0.5]];portConstraint=eastwest;whiteSpace=wrap;html=1;" parent="NoPwjyz6uO1jpUqEw4Ve-98" vertex="1">
          <mxGeometry y="26" width="180" height="28" as="geometry" />
        </mxCell>
        <mxCell id="NoPwjyz6uO1jpUqEw4Ve-95" value="- n_qubits: int" style="text;strokeColor=none;fillColor=none;align=left;verticalAlign=top;spacingLeft=4;spacingRight=4;overflow=hidden;rotatable=0;points=[[0,0.5],[1,0.5]];portConstraint=eastwest;whiteSpace=wrap;html=1;" parent="NoPwjyz6uO1jpUqEw4Ve-98" vertex="1">
          <mxGeometry y="54" width="180" height="26" as="geometry" />
        </mxCell>
        <mxCell id="NoPwjyz6uO1jpUqEw4Ve-100" value="" style="line;strokeWidth=1;fillColor=none;align=left;verticalAlign=middle;spacingTop=-1;spacingLeft=3;spacingRight=3;rotatable=0;labelPosition=right;points=[];portConstraint=eastwest;strokeColor=inherit;" parent="NoPwjyz6uO1jpUqEw4Ve-98" vertex="1">
          <mxGeometry y="80" width="180" height="8" as="geometry" />
        </mxCell>
        <mxCell id="NoPwjyz6uO1jpUqEw4Ve-106" value="+execute(State):State" style="text;strokeColor=none;fillColor=none;align=left;verticalAlign=top;spacingLeft=4;spacingRight=4;overflow=hidden;rotatable=0;points=[[0,0.5],[1,0.5]];portConstraint=eastwest;whiteSpace=wrap;html=1;" parent="NoPwjyz6uO1jpUqEw4Ve-98" vertex="1">
          <mxGeometry y="88" width="180" height="26" as="geometry" />
        </mxCell>
        <mxCell id="NoPwjyz6uO1jpUqEw4Ve-103" value="Instruction" style="swimlane;fontStyle=1;align=center;verticalAlign=top;childLayout=stackLayout;horizontal=1;startSize=26;horizontalStack=0;resizeParent=1;resizeParentMax=0;resizeLast=0;collapsible=1;marginBottom=0;whiteSpace=wrap;html=1;" parent="NoPwjyz6uO1jpUqEw4Ve-28" vertex="1">
          <mxGeometry x="280" y="44" width="340" height="138" as="geometry" />
        </mxCell>
        <mxCell id="NoPwjyz6uO1jpUqEw4Ve-104" value="+ un: HSMatrix" style="text;strokeColor=none;fillColor=none;align=left;verticalAlign=top;spacingLeft=4;spacingRight=4;overflow=hidden;rotatable=0;points=[[0,0.5],[1,0.5]];portConstraint=eastwest;whiteSpace=wrap;html=1;" parent="NoPwjyz6uO1jpUqEw4Ve-103" vertex="1">
          <mxGeometry y="26" width="340" height="26" as="geometry" />
        </mxCell>
        <mxCell id="NoPwjyz6uO1jpUqEw4Ve-111" value="+ qubits: IntArr" style="text;strokeColor=none;fillColor=none;align=left;verticalAlign=top;spacingLeft=4;spacingRight=4;overflow=hidden;rotatable=0;points=[[0,0.5],[1,0.5]];portConstraint=eastwest;whiteSpace=wrap;html=1;" parent="NoPwjyz6uO1jpUqEw4Ve-103" vertex="1">
          <mxGeometry y="52" width="340" height="26" as="geometry" />
        </mxCell>
        <mxCell id="NoPwjyz6uO1jpUqEw4Ve-105" value="" style="line;strokeWidth=1;fillColor=none;align=left;verticalAlign=middle;spacingTop=-1;spacingLeft=3;spacingRight=3;rotatable=0;labelPosition=right;points=[];portConstraint=eastwest;strokeColor=inherit;" parent="NoPwjyz6uO1jpUqEw4Ve-103" vertex="1">
          <mxGeometry y="78" width="340" height="8" as="geometry" />
        </mxCell>
        <mxCell id="NoPwjyz6uO1jpUqEw4Ve-101" value="+ evolve(State): State" style="text;strokeColor=none;fillColor=none;align=left;verticalAlign=top;spacingLeft=4;spacingRight=4;overflow=hidden;rotatable=0;points=[[0,0.5],[1,0.5]];portConstraint=eastwest;whiteSpace=wrap;html=1;" parent="NoPwjyz6uO1jpUqEw4Ve-103" vertex="1">
          <mxGeometry y="86" width="340" height="26" as="geometry" />
        </mxCell>
        <mxCell id="NoPwjyz6uO1jpUqEw4Ve-129" value="+ instruction_prod(Instruction, Instruction): Instruction" style="text;strokeColor=none;fillColor=none;align=left;verticalAlign=top;spacingLeft=4;spacingRight=4;overflow=hidden;rotatable=0;points=[[0,0.5],[1,0.5]];portConstraint=eastwest;whiteSpace=wrap;html=1;" parent="NoPwjyz6uO1jpUqEw4Ve-103" vertex="1">
          <mxGeometry y="112" width="340" height="26" as="geometry" />
        </mxCell>
        <mxCell id="NoPwjyz6uO1jpUqEw4Ve-130" style="edgeStyle=orthogonalEdgeStyle;rounded=0;orthogonalLoop=1;jettySize=auto;html=1;" parent="NoPwjyz6uO1jpUqEw4Ve-28" source="NoPwjyz6uO1jpUqEw4Ve-96" target="NoPwjyz6uO1jpUqEw4Ve-103" edge="1">
          <mxGeometry relative="1" as="geometry" />
        </mxCell>
        <mxCell id="NoPwjyz6uO1jpUqEw4Ve-44" value="&lt;div&gt;Algorithms&lt;/div&gt;" style="swimlane;whiteSpace=wrap;html=1;" parent="1" vertex="1">
          <mxGeometry x="130" y="-480" width="740" height="200" as="geometry" />
        </mxCell>
        <mxCell id="NoPwjyz6uO1jpUqEw4Ve-132" value="Grover" style="swimlane;fontStyle=1;align=center;verticalAlign=top;childLayout=stackLayout;horizontal=1;startSize=26;horizontalStack=0;resizeParent=1;resizeParentMax=0;resizeLast=0;collapsible=1;marginBottom=0;whiteSpace=wrap;html=1;" parent="NoPwjyz6uO1jpUqEw4Ve-44" vertex="1">
          <mxGeometry x="50" y="70" width="180" height="64" as="geometry" />
        </mxCell>
        <mxCell id="NoPwjyz6uO1jpUqEw4Ve-46" value="+ Grover()" style="text;strokeColor=none;fillColor=none;align=left;verticalAlign=middle;spacingLeft=4;spacingRight=4;overflow=hidden;points=[[0,0.5],[1,0.5]];portConstraint=eastwest;rotatable=0;whiteSpace=wrap;html=1;" parent="NoPwjyz6uO1jpUqEw4Ve-132" vertex="1">
          <mxGeometry y="26" width="180" height="30" as="geometry" />
        </mxCell>
        <mxCell id="NoPwjyz6uO1jpUqEw4Ve-135" value="" style="line;strokeWidth=1;fillColor=none;align=left;verticalAlign=middle;spacingTop=-1;spacingLeft=3;spacingRight=3;rotatable=0;labelPosition=right;points=[];portConstraint=eastwest;strokeColor=inherit;" parent="NoPwjyz6uO1jpUqEw4Ve-132" vertex="1">
          <mxGeometry y="56" width="180" height="8" as="geometry" />
        </mxCell>
        <mxCell id="NoPwjyz6uO1jpUqEw4Ve-140" value="&lt;div&gt;QAOA&lt;/div&gt;" style="swimlane;fontStyle=1;align=center;verticalAlign=top;childLayout=stackLayout;horizontal=1;startSize=26;horizontalStack=0;resizeParent=1;resizeParentMax=0;resizeLast=0;collapsible=1;marginBottom=0;whiteSpace=wrap;html=1;" parent="NoPwjyz6uO1jpUqEw4Ve-44" vertex="1">
          <mxGeometry x="260" y="70" width="180" height="64" as="geometry" />
        </mxCell>
        <mxCell id="NoPwjyz6uO1jpUqEw4Ve-141" value="+ QAOA()" style="text;strokeColor=none;fillColor=none;align=left;verticalAlign=middle;spacingLeft=4;spacingRight=4;overflow=hidden;points=[[0,0.5],[1,0.5]];portConstraint=eastwest;rotatable=0;whiteSpace=wrap;html=1;" parent="NoPwjyz6uO1jpUqEw4Ve-140" vertex="1">
          <mxGeometry y="26" width="180" height="30" as="geometry" />
        </mxCell>
        <mxCell id="NoPwjyz6uO1jpUqEw4Ve-142" value="" style="line;strokeWidth=1;fillColor=none;align=left;verticalAlign=middle;spacingTop=-1;spacingLeft=3;spacingRight=3;rotatable=0;labelPosition=right;points=[];portConstraint=eastwest;strokeColor=inherit;" parent="NoPwjyz6uO1jpUqEw4Ve-140" vertex="1">
          <mxGeometry y="56" width="180" height="8" as="geometry" />
        </mxCell>
        <mxCell id="NoPwjyz6uO1jpUqEw4Ve-92" value="&lt;div&gt;Eigen&lt;/div&gt;&lt;div&gt;&lt;br&gt;&lt;/div&gt;" style="shape=module;align=left;spacingLeft=20;align=center;verticalAlign=top;whiteSpace=wrap;html=1;" parent="1" vertex="1">
          <mxGeometry x="-150" y="172" width="100" height="50" as="geometry" />
        </mxCell>
        <mxCell id="NoPwjyz6uO1jpUqEw4Ve-93" style="edgeStyle=orthogonalEdgeStyle;rounded=0;orthogonalLoop=1;jettySize=auto;html=1;" parent="1" source="NoPwjyz6uO1jpUqEw4Ve-64" target="NoPwjyz6uO1jpUqEw4Ve-92" edge="1">
          <mxGeometry relative="1" as="geometry" />
        </mxCell>
        <mxCell id="NoPwjyz6uO1jpUqEw4Ve-91" value="&lt;div&gt;bin_utils&lt;/div&gt;" style="shape=module;align=left;spacingLeft=20;align=center;verticalAlign=top;whiteSpace=wrap;html=1;" parent="1" vertex="1">
          <mxGeometry x="370" y="380" width="100" height="50" as="geometry" />
        </mxCell>
        <mxCell id="NoPwjyz6uO1jpUqEw4Ve-86" style="edgeStyle=orthogonalEdgeStyle;rounded=0;orthogonalLoop=1;jettySize=auto;html=1;entryX=0.5;entryY=0;entryDx=0;entryDy=0;" parent="1" source="NoPwjyz6uO1jpUqEw4Ve-83" target="NoPwjyz6uO1jpUqEw4Ve-91" edge="1">
          <mxGeometry relative="1" as="geometry" />
        </mxCell>
        <mxCell id="NoPwjyz6uO1jpUqEw4Ve-78" style="rounded=0;orthogonalLoop=1;jettySize=auto;html=1;edgeStyle=orthogonalEdgeStyle;entryX=0.5;entryY=0;entryDx=0;entryDy=0;" parent="1" source="NoPwjyz6uO1jpUqEw4Ve-62" target="NoPwjyz6uO1jpUqEw4Ve-91" edge="1">
          <mxGeometry relative="1" as="geometry">
            <mxPoint x="400" y="420" as="targetPoint" />
          </mxGeometry>
        </mxCell>
        <mxCell id="NoPwjyz6uO1jpUqEw4Ve-90" style="edgeStyle=orthogonalEdgeStyle;rounded=0;orthogonalLoop=1;jettySize=auto;html=1;entryX=0.75;entryY=0;entryDx=0;entryDy=0;" parent="1" source="NoPwjyz6uO1jpUqEw4Ve-70" target="NoPwjyz6uO1jpUqEw4Ve-91" edge="1">
          <mxGeometry relative="1" as="geometry">
            <mxPoint x="230.00000000000023" y="257" as="targetPoint" />
          </mxGeometry>
        </mxCell>
        <mxCell id="NoPwjyz6uO1jpUqEw4Ve-123" style="edgeStyle=orthogonalEdgeStyle;rounded=0;orthogonalLoop=1;jettySize=auto;html=1;entryX=0.5;entryY=0;entryDx=0;entryDy=0;" parent="1" source="NoPwjyz6uO1jpUqEw4Ve-122" target="NoPwjyz6uO1jpUqEw4Ve-91" edge="1">
          <mxGeometry relative="1" as="geometry" />
        </mxCell>
        <mxCell id="NoPwjyz6uO1jpUqEw4Ve-89" style="edgeStyle=orthogonalEdgeStyle;rounded=0;orthogonalLoop=1;jettySize=auto;html=1;entryX=0.75;entryY=0;entryDx=0;entryDy=0;" parent="1" source="NoPwjyz6uO1jpUqEw4Ve-84" target="NoPwjyz6uO1jpUqEw4Ve-91" edge="1">
          <mxGeometry relative="1" as="geometry">
            <mxPoint x="580" y="370" as="targetPoint" />
          </mxGeometry>
        </mxCell>
        <mxCell id="NoPwjyz6uO1jpUqEw4Ve-125" style="edgeStyle=orthogonalEdgeStyle;rounded=0;orthogonalLoop=1;jettySize=auto;html=1;entryX=0.5;entryY=0;entryDx=0;entryDy=0;" parent="1" source="NoPwjyz6uO1jpUqEw4Ve-64" target="NoPwjyz6uO1jpUqEw4Ve-91" edge="1">
          <mxGeometry relative="1" as="geometry">
            <mxPoint x="469.9999999999998" y="420" as="targetPoint" />
          </mxGeometry>
        </mxCell>
        <mxCell id="NoPwjyz6uO1jpUqEw4Ve-128" style="edgeStyle=orthogonalEdgeStyle;rounded=0;orthogonalLoop=1;jettySize=auto;html=1;exitX=0;exitY=0.5;exitDx=0;exitDy=0;entryX=0.75;entryY=0;entryDx=0;entryDy=0;" parent="1" source="NoPwjyz6uO1jpUqEw4Ve-101" target="NoPwjyz6uO1jpUqEw4Ve-59" edge="1">
          <mxGeometry relative="1" as="geometry" />
        </mxCell>
        <mxCell id="NoPwjyz6uO1jpUqEw4Ve-131" style="edgeStyle=orthogonalEdgeStyle;rounded=0;orthogonalLoop=1;jettySize=auto;html=1;exitX=1;exitY=0.5;exitDx=0;exitDy=0;entryX=1;entryY=0.5;entryDx=0;entryDy=0;" parent="1" source="NoPwjyz6uO1jpUqEw4Ve-129" target="NoPwjyz6uO1jpUqEw4Ve-91" edge="1">
          <mxGeometry relative="1" as="geometry">
            <Array as="points">
              <mxPoint x="830" y="-71" />
              <mxPoint x="830" y="345" />
            </Array>
          </mxGeometry>
        </mxCell>
        <mxCell id="NoPwjyz6uO1jpUqEw4Ve-139" style="edgeStyle=orthogonalEdgeStyle;rounded=0;orthogonalLoop=1;jettySize=auto;html=1;entryX=0.25;entryY=0;entryDx=0;entryDy=0;endArrow=block;endFill=0;exitX=0.5;exitY=1;exitDx=0;exitDy=0;" parent="1" source="NoPwjyz6uO1jpUqEw4Ve-132" target="NoPwjyz6uO1jpUqEw4Ve-98" edge="1">
          <mxGeometry relative="1" as="geometry" />
        </mxCell>
        <mxCell id="NoPwjyz6uO1jpUqEw4Ve-143" style="edgeStyle=orthogonalEdgeStyle;rounded=0;orthogonalLoop=1;jettySize=auto;html=1;entryX=0.5;entryY=0;entryDx=0;entryDy=0;endArrow=block;endFill=0;" parent="1" source="NoPwjyz6uO1jpUqEw4Ve-140" target="NoPwjyz6uO1jpUqEw4Ve-98" edge="1">
          <mxGeometry relative="1" as="geometry" />
        </mxCell>
        <mxCell id="HAuFXq_arxBWg5W7KPL8-75" value="&lt;div&gt;Gate Circuit&lt;/div&gt;" style="swimlane;whiteSpace=wrap;html=1;" vertex="1" parent="1">
          <mxGeometry x="-920" y="-170" width="730" height="562" as="geometry" />
        </mxCell>
        <mxCell id="HAuFXq_arxBWg5W7KPL8-5" value="&lt;b&gt;Evolution &amp;lt;I&amp;gt;&lt;/b&gt;" style="html=1;whiteSpace=wrap;" vertex="1" parent="HAuFXq_arxBWg5W7KPL8-75">
          <mxGeometry x="325" y="342" width="110" height="50" as="geometry" />
        </mxCell>
        <mxCell id="HAuFXq_arxBWg5W7KPL8-10" style="edgeStyle=orthogonalEdgeStyle;rounded=0;orthogonalLoop=1;jettySize=auto;html=1;entryX=0.5;entryY=1;entryDx=0;entryDy=0;endArrow=block;endFill=0;exitX=0.5;exitY=0;exitDx=0;exitDy=0;" edge="1" parent="HAuFXq_arxBWg5W7KPL8-75" source="HAuFXq_arxBWg5W7KPL8-16" target="HAuFXq_arxBWg5W7KPL8-5">
          <mxGeometry relative="1" as="geometry" />
        </mxCell>
        <mxCell id="HAuFXq_arxBWg5W7KPL8-14" style="edgeStyle=orthogonalEdgeStyle;rounded=0;orthogonalLoop=1;jettySize=auto;html=1;exitX=1;exitY=0.5;exitDx=0;exitDy=0;entryX=0.5;entryY=1;entryDx=0;entryDy=0;endArrow=block;endFill=0;" edge="1" parent="HAuFXq_arxBWg5W7KPL8-75" source="HAuFXq_arxBWg5W7KPL8-16" target="HAuFXq_arxBWg5W7KPL8-13">
          <mxGeometry relative="1" as="geometry" />
        </mxCell>
        <mxCell id="HAuFXq_arxBWg5W7KPL8-13" value="&lt;b&gt;Prods &amp;lt;I&amp;gt;&lt;/b&gt;" style="html=1;whiteSpace=wrap;" vertex="1" parent="HAuFXq_arxBWg5W7KPL8-75">
          <mxGeometry x="455" y="312" width="110" height="50" as="geometry" />
        </mxCell>
        <mxCell id="HAuFXq_arxBWg5W7KPL8-35" style="edgeStyle=orthogonalEdgeStyle;rounded=0;orthogonalLoop=1;jettySize=auto;html=1;entryX=0.5;entryY=1;entryDx=0;entryDy=0;endArrow=block;endFill=0;" edge="1" parent="HAuFXq_arxBWg5W7KPL8-75" target="HAuFXq_arxBWg5W7KPL8-31">
          <mxGeometry relative="1" as="geometry">
            <mxPoint x="210" y="502" as="sourcePoint" />
          </mxGeometry>
        </mxCell>
        <mxCell id="HAuFXq_arxBWg5W7KPL8-36" style="edgeStyle=orthogonalEdgeStyle;rounded=0;orthogonalLoop=1;jettySize=auto;html=1;exitX=0.5;exitY=0;exitDx=0;exitDy=0;entryX=0.5;entryY=1;entryDx=0;entryDy=0;endArrow=block;endFill=0;" edge="1" parent="HAuFXq_arxBWg5W7KPL8-75" source="HAuFXq_arxBWg5W7KPL8-16" target="HAuFXq_arxBWg5W7KPL8-32">
          <mxGeometry relative="1" as="geometry" />
        </mxCell>
        <mxCell id="HAuFXq_arxBWg5W7KPL8-16" value="&lt;b&gt;Tensors&lt;/b&gt;" style="shape=module;align=left;spacingLeft=20;align=center;verticalAlign=top;whiteSpace=wrap;html=1;" vertex="1" parent="HAuFXq_arxBWg5W7KPL8-75">
          <mxGeometry x="160" y="512" width="100" height="50" as="geometry" />
        </mxCell>
        <mxCell id="HAuFXq_arxBWg5W7KPL8-30" style="edgeStyle=orthogonalEdgeStyle;rounded=0;orthogonalLoop=1;jettySize=auto;html=1;entryX=0.5;entryY=0;entryDx=0;entryDy=0;" edge="1" parent="HAuFXq_arxBWg5W7KPL8-75" source="HAuFXq_arxBWg5W7KPL8-24" target="HAuFXq_arxBWg5W7KPL8-5">
          <mxGeometry relative="1" as="geometry" />
        </mxCell>
        <mxCell id="HAuFXq_arxBWg5W7KPL8-38" style="edgeStyle=orthogonalEdgeStyle;rounded=0;orthogonalLoop=1;jettySize=auto;html=1;entryX=0.5;entryY=0;entryDx=0;entryDy=0;" edge="1" parent="HAuFXq_arxBWg5W7KPL8-75" source="HAuFXq_arxBWg5W7KPL8-24" target="HAuFXq_arxBWg5W7KPL8-31">
          <mxGeometry relative="1" as="geometry" />
        </mxCell>
        <mxCell id="HAuFXq_arxBWg5W7KPL8-24" value="Instruction" style="swimlane;fontStyle=1;align=center;verticalAlign=top;childLayout=stackLayout;horizontal=1;startSize=26;horizontalStack=0;resizeParent=1;resizeParentMax=0;resizeLast=0;collapsible=1;marginBottom=0;whiteSpace=wrap;html=1;movable=1;resizable=1;rotatable=1;deletable=1;editable=1;locked=0;connectable=1;" vertex="1" parent="HAuFXq_arxBWg5W7KPL8-75">
          <mxGeometry x="120" y="210" width="140" height="112" as="geometry" />
        </mxCell>
        <mxCell id="HAuFXq_arxBWg5W7KPL8-45" style="text;strokeColor=none;fillColor=none;align=left;verticalAlign=top;spacingLeft=4;spacingRight=4;overflow=hidden;rotatable=0;points=[[0,0.5],[1,0.5]];portConstraint=eastwest;whiteSpace=wrap;html=1;movable=0;resizable=0;deletable=0;editable=0;locked=1;connectable=0;" vertex="1" parent="HAuFXq_arxBWg5W7KPL8-24">
          <mxGeometry y="26" width="140" height="26" as="geometry" />
        </mxCell>
        <mxCell id="HAuFXq_arxBWg5W7KPL8-42" style="text;strokeColor=none;fillColor=none;align=left;verticalAlign=top;spacingLeft=4;spacingRight=4;overflow=hidden;rotatable=0;points=[[0,0.5],[1,0.5]];portConstraint=eastwest;whiteSpace=wrap;html=1;movable=0;resizable=0;deletable=0;editable=0;locked=1;connectable=0;" vertex="1" parent="HAuFXq_arxBWg5W7KPL8-24">
          <mxGeometry y="26" width="140" height="26" as="geometry" />
        </mxCell>
        <mxCell id="HAuFXq_arxBWg5W7KPL8-40" style="text;strokeColor=none;fillColor=none;align=left;verticalAlign=top;spacingLeft=4;spacingRight=4;overflow=hidden;rotatable=0;points=[[0,0.5],[1,0.5]];portConstraint=eastwest;whiteSpace=wrap;html=1;movable=0;resizable=0;deletable=0;editable=0;locked=1;connectable=0;" vertex="1" parent="HAuFXq_arxBWg5W7KPL8-24">
          <mxGeometry y="26" width="140" height="26" as="geometry" />
        </mxCell>
        <mxCell id="HAuFXq_arxBWg5W7KPL8-28" value="+ evolve(State): State" style="text;strokeColor=none;fillColor=none;align=left;verticalAlign=top;spacingLeft=4;spacingRight=4;overflow=hidden;rotatable=0;points=[[0,0.5],[1,0.5]];portConstraint=eastwest;whiteSpace=wrap;html=1;movable=0;resizable=0;deletable=0;editable=0;locked=1;connectable=0;" vertex="1" parent="HAuFXq_arxBWg5W7KPL8-24">
          <mxGeometry y="26" width="140" height="26" as="geometry" />
        </mxCell>
        <mxCell id="HAuFXq_arxBWg5W7KPL8-41" style="text;strokeColor=none;fillColor=none;align=left;verticalAlign=top;spacingLeft=4;spacingRight=4;overflow=hidden;rotatable=0;points=[[0,0.5],[1,0.5]];portConstraint=eastwest;whiteSpace=wrap;html=1;movable=0;resizable=0;deletable=0;editable=0;locked=1;connectable=0;" vertex="1" parent="HAuFXq_arxBWg5W7KPL8-24">
          <mxGeometry y="26" width="140" height="26" as="geometry" />
        </mxCell>
        <mxCell id="HAuFXq_arxBWg5W7KPL8-43" style="text;strokeColor=none;fillColor=none;align=left;verticalAlign=top;spacingLeft=4;spacingRight=4;overflow=hidden;rotatable=0;points=[[0,0.5],[1,0.5]];portConstraint=eastwest;whiteSpace=wrap;html=1;movable=0;resizable=0;deletable=0;editable=0;locked=1;connectable=0;" vertex="1" parent="HAuFXq_arxBWg5W7KPL8-24">
          <mxGeometry y="26" width="140" height="26" as="geometry" />
        </mxCell>
        <mxCell id="HAuFXq_arxBWg5W7KPL8-44" style="text;strokeColor=none;fillColor=none;align=left;verticalAlign=top;spacingLeft=4;spacingRight=4;overflow=hidden;rotatable=0;points=[[0,0.5],[1,0.5]];portConstraint=eastwest;whiteSpace=wrap;html=1;movable=0;resizable=0;deletable=0;editable=0;locked=1;connectable=0;" vertex="1" parent="HAuFXq_arxBWg5W7KPL8-24">
          <mxGeometry y="26" width="140" height="26" as="geometry" />
        </mxCell>
        <mxCell id="HAuFXq_arxBWg5W7KPL8-46" style="text;strokeColor=none;fillColor=none;align=left;verticalAlign=top;spacingLeft=4;spacingRight=4;overflow=hidden;rotatable=0;points=[[0,0.5],[1,0.5]];portConstraint=eastwest;whiteSpace=wrap;html=1;movable=0;resizable=0;deletable=0;editable=0;locked=1;connectable=0;" vertex="1" parent="HAuFXq_arxBWg5W7KPL8-24">
          <mxGeometry y="26" width="140" height="26" as="geometry" />
        </mxCell>
        <mxCell id="HAuFXq_arxBWg5W7KPL8-47" style="text;strokeColor=none;fillColor=none;align=left;verticalAlign=top;spacingLeft=4;spacingRight=4;overflow=hidden;rotatable=1;points=[[0,0.5],[1,0.5]];portConstraint=eastwest;whiteSpace=wrap;html=1;movable=1;resizable=1;deletable=1;editable=1;locked=0;connectable=1;" vertex="1" parent="HAuFXq_arxBWg5W7KPL8-24">
          <mxGeometry y="26" width="140" height="26" as="geometry" />
        </mxCell>
        <mxCell id="HAuFXq_arxBWg5W7KPL8-70" value="" style="line;strokeWidth=1;fillColor=none;align=left;verticalAlign=middle;spacingTop=-1;spacingLeft=3;spacingRight=3;rotatable=0;labelPosition=right;points=[];portConstraint=eastwest;strokeColor=inherit;" vertex="1" parent="HAuFXq_arxBWg5W7KPL8-24">
          <mxGeometry y="52" width="140" height="8" as="geometry" />
        </mxCell>
        <mxCell id="HAuFXq_arxBWg5W7KPL8-69" value="- qubs: Qubits" style="text;strokeColor=none;fillColor=none;align=left;verticalAlign=top;spacingLeft=4;spacingRight=4;overflow=hidden;rotatable=1;points=[[0,0.5],[1,0.5]];portConstraint=eastwest;whiteSpace=wrap;html=1;movable=1;resizable=1;deletable=1;editable=1;locked=0;connectable=1;" vertex="1" parent="HAuFXq_arxBWg5W7KPL8-24">
          <mxGeometry y="60" width="140" height="26" as="geometry" />
        </mxCell>
        <mxCell id="HAuFXq_arxBWg5W7KPL8-68" value="- u: Unitary" style="text;strokeColor=none;fillColor=none;align=left;verticalAlign=top;spacingLeft=4;spacingRight=4;overflow=hidden;rotatable=1;points=[[0,0.5],[1,0.5]];portConstraint=eastwest;whiteSpace=wrap;html=1;movable=1;resizable=1;deletable=1;editable=1;locked=0;connectable=1;" vertex="1" parent="HAuFXq_arxBWg5W7KPL8-24">
          <mxGeometry y="86" width="140" height="26" as="geometry" />
        </mxCell>
        <mxCell id="HAuFXq_arxBWg5W7KPL8-31" value="&lt;b&gt;Unitary &amp;lt;I&amp;gt;&lt;/b&gt;" style="html=1;whiteSpace=wrap;" vertex="1" parent="HAuFXq_arxBWg5W7KPL8-75">
          <mxGeometry x="135" y="342" width="110" height="50" as="geometry" />
        </mxCell>
        <mxCell id="HAuFXq_arxBWg5W7KPL8-32" value="&lt;b&gt;StateImpl &amp;lt;I&amp;gt;&lt;/b&gt;" style="html=1;whiteSpace=wrap;" vertex="1" parent="HAuFXq_arxBWg5W7KPL8-75">
          <mxGeometry y="402" width="110" height="50" as="geometry" />
        </mxCell>
        <mxCell id="HAuFXq_arxBWg5W7KPL8-106" style="edgeStyle=orthogonalEdgeStyle;rounded=0;orthogonalLoop=1;jettySize=auto;html=1;entryX=0;entryY=0.5;entryDx=0;entryDy=0;endArrow=block;endFill=0;" edge="1" parent="1" source="HAuFXq_arxBWg5W7KPL8-105" target="HAuFXq_arxBWg5W7KPL8-73">
          <mxGeometry relative="1" as="geometry" />
        </mxCell>
        <mxCell id="HAuFXq_arxBWg5W7KPL8-105" value="&lt;b&gt;ConsoleDrawer&lt;/b&gt;" style="html=1;whiteSpace=wrap;" vertex="1" parent="1">
          <mxGeometry x="-1080" y="-618" width="110" height="50" as="geometry" />
        </mxCell>
        <mxCell id="HAuFXq_arxBWg5W7KPL8-109" value="Quantum Simulator" style="swimlane;whiteSpace=wrap;html=1;" vertex="1" parent="1">
          <mxGeometry x="-925" y="-690" width="875" height="480" as="geometry" />
        </mxCell>
        <mxCell id="HAuFXq_arxBWg5W7KPL8-96" value="QC_Presentations &amp;lt;DS&amp;gt;" style="html=1;whiteSpace=wrap;" vertex="1" parent="HAuFXq_arxBWg5W7KPL8-109">
          <mxGeometry x="15" y="326" width="110" height="50" as="geometry" />
        </mxCell>
        <mxCell id="HAuFXq_arxBWg5W7KPL8-95" value="&lt;p style=&quot;margin:0px;margin-top:4px;text-align:center;&quot;&gt;&lt;i&gt;&amp;lt;&amp;lt;Interface&amp;gt;&amp;gt;&lt;/i&gt;&lt;br&gt;&lt;b&gt;QC_Provider&lt;/b&gt;&lt;br&gt;&lt;/p&gt;&lt;hr size=&quot;1&quot; style=&quot;border-style:solid;&quot;&gt;&lt;p style=&quot;margin:0px;margin-left:4px;&quot;&gt;+ field1: Type&lt;br&gt;+ field2: Type&lt;/p&gt;&lt;hr size=&quot;1&quot; style=&quot;border-style:solid;&quot;&gt;&lt;p style=&quot;margin:0px;margin-left:4px;&quot;&gt;+ method1(Type): Type&lt;br&gt;+ method2(Type, Type): Type&lt;/p&gt;" style="verticalAlign=top;align=left;overflow=fill;html=1;whiteSpace=wrap;" vertex="1" parent="HAuFXq_arxBWg5W7KPL8-109">
          <mxGeometry x="205" y="281" width="190" height="140" as="geometry" />
        </mxCell>
        <mxCell id="HAuFXq_arxBWg5W7KPL8-100" style="edgeStyle=orthogonalEdgeStyle;rounded=0;orthogonalLoop=1;jettySize=auto;html=1;entryX=1;entryY=0.5;entryDx=0;entryDy=0;" edge="1" parent="HAuFXq_arxBWg5W7KPL8-109" source="HAuFXq_arxBWg5W7KPL8-95" target="HAuFXq_arxBWg5W7KPL8-96">
          <mxGeometry relative="1" as="geometry" />
        </mxCell>
        <mxCell id="HAuFXq_arxBWg5W7KPL8-114" value="&lt;div&gt;&lt;i&gt;&amp;lt;&amp;lt;Interface&amp;gt;&amp;gt;&lt;br&gt;&lt;/i&gt;&lt;/div&gt;&lt;div&gt;&lt;b&gt;Result&lt;/b&gt;&lt;br&gt;&lt;/div&gt;" style="html=1;whiteSpace=wrap;" vertex="1" parent="HAuFXq_arxBWg5W7KPL8-109">
          <mxGeometry x="605" y="326" width="110" height="50" as="geometry" />
        </mxCell>
        <mxCell id="HAuFXq_arxBWg5W7KPL8-113" value="&lt;div&gt;&lt;i&gt;&amp;lt;&amp;lt;Interface&amp;gt;&amp;gt;&lt;br&gt;&lt;/i&gt;&lt;/div&gt;&lt;div&gt;&lt;b&gt;Status&lt;/b&gt;&lt;/div&gt;" style="html=1;whiteSpace=wrap;" vertex="1" parent="HAuFXq_arxBWg5W7KPL8-109">
          <mxGeometry x="455" y="326" width="110" height="50" as="geometry" />
        </mxCell>
        <mxCell id="HAuFXq_arxBWg5W7KPL8-50" value="QuantumCircuit" style="swimlane;fontStyle=1;align=center;verticalAlign=top;childLayout=stackLayout;horizontal=1;startSize=26;horizontalStack=0;resizeParent=1;resizeParentMax=0;resizeLast=0;collapsible=1;marginBottom=0;whiteSpace=wrap;html=1;" vertex="1" parent="HAuFXq_arxBWg5W7KPL8-109">
          <mxGeometry x="192.5" y="32" width="215" height="216" as="geometry" />
        </mxCell>
        <mxCell id="HAuFXq_arxBWg5W7KPL8-92" value="- qc_provider: QC_Provider" style="text;strokeColor=none;fillColor=none;align=left;verticalAlign=top;spacingLeft=4;spacingRight=4;overflow=hidden;rotatable=0;points=[[0,0.5],[1,0.5]];portConstraint=eastwest;whiteSpace=wrap;html=1;" vertex="1" parent="HAuFXq_arxBWg5W7KPL8-50">
          <mxGeometry y="26" width="215" height="26" as="geometry" />
        </mxCell>
        <mxCell id="HAuFXq_arxBWg5W7KPL8-91" value="- drawer:Drawer" style="text;strokeColor=none;fillColor=none;align=left;verticalAlign=top;spacingLeft=4;spacingRight=4;overflow=hidden;rotatable=0;points=[[0,0.5],[1,0.5]];portConstraint=eastwest;whiteSpace=wrap;html=1;" vertex="1" parent="HAuFXq_arxBWg5W7KPL8-50">
          <mxGeometry y="52" width="215" height="26" as="geometry" />
        </mxCell>
        <mxCell id="HAuFXq_arxBWg5W7KPL8-53" value="" style="line;strokeWidth=1;fillColor=none;align=left;verticalAlign=middle;spacingTop=-1;spacingLeft=3;spacingRight=3;rotatable=0;labelPosition=right;points=[];portConstraint=eastwest;strokeColor=inherit;" vertex="1" parent="HAuFXq_arxBWg5W7KPL8-50">
          <mxGeometry y="78" width="215" height="8" as="geometry" />
        </mxCell>
        <mxCell id="HAuFXq_arxBWg5W7KPL8-54" value="+ get_qubits(): IntArr" style="text;strokeColor=none;fillColor=none;align=left;verticalAlign=top;spacingLeft=4;spacingRight=4;overflow=hidden;rotatable=0;points=[[0,0.5],[1,0.5]];portConstraint=eastwest;whiteSpace=wrap;html=1;" vertex="1" parent="HAuFXq_arxBWg5W7KPL8-50">
          <mxGeometry y="86" width="215" height="26" as="geometry" />
        </mxCell>
        <mxCell id="HAuFXq_arxBWg5W7KPL8-71" value="+ n_qubits(): int" style="text;strokeColor=none;fillColor=none;align=left;verticalAlign=top;spacingLeft=4;spacingRight=4;overflow=hidden;rotatable=0;points=[[0,0.5],[1,0.5]];portConstraint=eastwest;whiteSpace=wrap;html=1;" vertex="1" parent="HAuFXq_arxBWg5W7KPL8-50">
          <mxGeometry y="112" width="215" height="26" as="geometry" />
        </mxCell>
        <mxCell id="HAuFXq_arxBWg5W7KPL8-82" value="+ draw(): void" style="text;strokeColor=none;fillColor=none;align=left;verticalAlign=top;spacingLeft=4;spacingRight=4;overflow=hidden;rotatable=0;points=[[0,0.5],[1,0.5]];portConstraint=eastwest;whiteSpace=wrap;html=1;" vertex="1" parent="HAuFXq_arxBWg5W7KPL8-50">
          <mxGeometry y="138" width="215" height="26" as="geometry" />
        </mxCell>
        <mxCell id="HAuFXq_arxBWg5W7KPL8-72" value="&lt;div&gt;+ execute(): Status&lt;br&gt;&lt;/div&gt;&amp;nbsp;" style="text;strokeColor=none;fillColor=none;align=left;verticalAlign=top;spacingLeft=4;spacingRight=4;overflow=hidden;rotatable=0;points=[[0,0.5],[1,0.5]];portConstraint=eastwest;whiteSpace=wrap;html=1;" vertex="1" parent="HAuFXq_arxBWg5W7KPL8-50">
          <mxGeometry y="164" width="215" height="26" as="geometry" />
        </mxCell>
        <mxCell id="HAuFXq_arxBWg5W7KPL8-110" value="+ get_result(): Result" style="text;strokeColor=none;fillColor=none;align=left;verticalAlign=top;spacingLeft=4;spacingRight=4;overflow=hidden;rotatable=0;points=[[0,0.5],[1,0.5]];portConstraint=eastwest;whiteSpace=wrap;html=1;" vertex="1" parent="HAuFXq_arxBWg5W7KPL8-50">
          <mxGeometry y="190" width="215" height="26" as="geometry" />
        </mxCell>
        <mxCell id="HAuFXq_arxBWg5W7KPL8-115" style="edgeStyle=orthogonalEdgeStyle;rounded=0;orthogonalLoop=1;jettySize=auto;html=1;entryX=0.5;entryY=0;entryDx=0;entryDy=0;" edge="1" parent="HAuFXq_arxBWg5W7KPL8-109" source="HAuFXq_arxBWg5W7KPL8-72" target="HAuFXq_arxBWg5W7KPL8-113">
          <mxGeometry relative="1" as="geometry">
            <mxPoint x="485" y="270" as="targetPoint" />
          </mxGeometry>
        </mxCell>
        <mxCell id="HAuFXq_arxBWg5W7KPL8-101" style="edgeStyle=orthogonalEdgeStyle;rounded=0;orthogonalLoop=1;jettySize=auto;html=1;entryX=0.5;entryY=0;entryDx=0;entryDy=0;" edge="1" parent="HAuFXq_arxBWg5W7KPL8-109" source="HAuFXq_arxBWg5W7KPL8-50" target="HAuFXq_arxBWg5W7KPL8-95">
          <mxGeometry relative="1" as="geometry" />
        </mxCell>
        <mxCell id="HAuFXq_arxBWg5W7KPL8-73" value="&lt;i&gt;&amp;lt;&amp;lt;Interface&amp;gt;&amp;gt;&lt;/i&gt;&lt;div&gt;&lt;b&gt;Drawer&lt;/b&gt;&lt;/div&gt;" style="html=1;whiteSpace=wrap;" vertex="1" parent="HAuFXq_arxBWg5W7KPL8-109">
          <mxGeometry x="15" y="72" width="110" height="50" as="geometry" />
        </mxCell>
        <mxCell id="HAuFXq_arxBWg5W7KPL8-97" value="" style="edgeStyle=orthogonalEdgeStyle;rounded=0;orthogonalLoop=1;jettySize=auto;html=1;" edge="1" parent="HAuFXq_arxBWg5W7KPL8-109" source="HAuFXq_arxBWg5W7KPL8-73" target="HAuFXq_arxBWg5W7KPL8-96">
          <mxGeometry relative="1" as="geometry" />
        </mxCell>
        <mxCell id="HAuFXq_arxBWg5W7KPL8-102" style="edgeStyle=orthogonalEdgeStyle;rounded=0;orthogonalLoop=1;jettySize=auto;html=1;entryX=1;entryY=0.5;entryDx=0;entryDy=0;" edge="1" parent="HAuFXq_arxBWg5W7KPL8-109" source="HAuFXq_arxBWg5W7KPL8-91" target="HAuFXq_arxBWg5W7KPL8-73">
          <mxGeometry relative="1" as="geometry" />
        </mxCell>
        <mxCell id="HAuFXq_arxBWg5W7KPL8-111" value="&lt;p style=&quot;margin:0px;margin-top:4px;text-align:center;&quot;&gt;&lt;i&gt;&amp;lt;&amp;lt;Interface&amp;gt;&amp;gt;&lt;/i&gt;&lt;br&gt;&lt;b&gt;Result&lt;/b&gt;&lt;br&gt;&lt;/p&gt;&lt;hr size=&quot;1&quot; style=&quot;border-style:solid;&quot;&gt;" style="verticalAlign=top;align=left;overflow=fill;html=1;whiteSpace=wrap;" vertex="1" parent="1">
          <mxGeometry x="-20" y="-660" width="190" height="140" as="geometry" />
        </mxCell>
        <mxCell id="HAuFXq_arxBWg5W7KPL8-112" value="&lt;p style=&quot;margin:0px;margin-top:4px;text-align:center;&quot;&gt;&lt;i&gt;&amp;lt;&amp;lt;Interface&amp;gt;&amp;gt;&lt;/i&gt;&lt;br&gt;&lt;b&gt;Status&lt;/b&gt;&lt;br&gt;&lt;/p&gt;&lt;hr size=&quot;1&quot; style=&quot;border-style:solid;&quot;&gt;&lt;p style=&quot;margin:0px;margin-left:4px;&quot;&gt;+ field1: Type&lt;br&gt;+ field2: Type&lt;/p&gt;&lt;hr size=&quot;1&quot; style=&quot;border-style:solid;&quot;&gt;&lt;p style=&quot;margin:0px;margin-left:4px;&quot;&gt;+ method1(Type): Type&lt;br&gt;+ method2(Type, Type): Type&lt;/p&gt;" style="verticalAlign=top;align=left;overflow=fill;html=1;whiteSpace=wrap;" vertex="1" parent="1">
          <mxGeometry y="-470" width="190" height="140" as="geometry" />
        </mxCell>
      </root>
    </mxGraphModel>
  </diagram>
</mxfile>
